<svg xmlns="http://www.w3.org/2000/svg" width="188" height="148" viewBox="0 0 188 148">
<g>
<path d="M 55.98 126.51 C52.46,128.33 49.28,128.36 46.11,126.60 C41.87,124.25 41.07,121.38 41.04,108.20 C40.99,91.32 42.26,89.00 51.58,89.00 C54.59,89.00 56.61,89.61 57.90,90.90 C59.76,92.76 59.90,92.74 65.39,89.97 C72.21,86.53 79.71,85.47 87.58,86.83 C109.90,90.69 117.61,92.23 118.35,92.96 C118.82,93.42 120.84,92.68 122.85,91.31 C134.04,83.66 143.78,81.07 146.30,85.10 C150.09,91.16 135.23,104.83 110.42,118.13 C100.35,123.53 96.28,124.13 87.43,121.57 C75.38,118.08 60.81,118.86 59.48,123.07 C59.14,124.14 57.56,125.69 55.98,126.51 ZM 104.13 73.58 C99.13,75.68 88.35,75.34 83.50,72.93 C76.46,69.42 71.17,63.28 68.90,56.01 C64.71,42.55 70.50,29.40 83.23,23.48 C96.47,17.31 111.33,22.66 118.72,36.26 C121.44,41.25 121.18,55.18 118.27,60.64 C115.75,65.39 109.07,71.50 104.13,73.58 ZM 89.50 71.10 C96.73,72.95 106.55,69.70 111.53,63.79 C115.60,58.97 117.00,54.84 116.98,47.78 C116.93,34.06 107.93,25.00 94.35,25.00 C84.58,25.00 77.66,29.46 73.38,38.50 C70.46,44.68 70.36,50.98 73.08,57.00 C76.43,64.40 82.00,69.18 89.50,71.10 ZM 87.50 117.85 C91.90,118.95 96.22,119.89 97.10,119.93 C100.96,120.10 124.86,106.26 134.33,98.36 C140.58,93.15 144.76,87.59 143.16,86.60 C142.68,86.30 140.81,86.48 139.00,87.00 C134.83,88.20 121.99,95.79 121.52,97.33 C121.33,97.97 120.90,99.71 120.58,101.18 C120.25,102.72 119.04,104.22 117.75,104.68 C116.51,105.13 109.20,105.53 101.50,105.57 C93.80,105.61 86.42,105.84 85.10,106.07 C83.74,106.31 82.51,105.96 82.27,105.26 C81.44,102.87 87.47,101.83 101.62,101.92 C112.51,102.00 116.00,101.71 116.89,100.64 C119.77,97.17 115.74,94.93 104.00,93.48 C100.97,93.11 95.80,92.18 92.50,91.42 C80.86,88.73 69.27,90.38 63.05,95.61 C60.05,98.13 60.00,98.34 60.00,107.44 L 60.00 116.70 L 69.75 116.27 C77.29,115.94 81.32,116.30 87.50,117.85 ZM 46.65 122.17 C48.97,124.73 53.52,124.52 55.44,121.78 C57.68,118.59 57.68,97.41 55.44,94.22 C53.62,91.62 50.36,91.36 47.22,93.56 C45.13,95.03 45.00,95.83 45.00,107.73 C45.00,118.06 45.30,120.67 46.65,122.17 ZM 96.00 61.34 C96.00,63.09 94.60,64.26 93.64,63.31 C93.29,62.95 93.00,61.87 93.00,60.89 C93.00,59.91 91.65,58.32 90.00,57.34 C86.09,55.03 85.92,52.50 89.75,53.46 C95.08,54.79 97.43,54.58 97.80,52.73 C98.05,51.50 97.11,50.52 94.68,49.51 C87.69,46.59 85.77,41.50 90.50,38.41 C91.88,37.51 93.00,35.92 93.00,34.88 C93.00,33.85 93.68,33.00 94.50,33.00 C95.34,33.00 96.00,33.89 96.00,35.02 C96.00,36.21 97.03,37.51 98.50,38.18 C99.88,38.81 101.00,40.15 101.00,41.16 C101.00,43.29 99.76,43.49 97.07,41.81 C95.68,40.94 94.53,40.91 92.83,41.69 C90.51,42.75 90.51,42.76 93.94,44.63 C98.54,47.13 102.00,50.54 102.00,52.55 C102.00,53.46 100.65,55.46 99.00,57.00 C97.35,58.54 96.00,60.50 96.00,61.34 Z" fill="rgb(23,38,46)"/>
<path d="M 0.00 74.00 L 0.00 0.00 L 94.00 0.00 L 188.00 0.00 L 188.00 74.00 L 188.00 148.00 L 94.00 148.00 L 0.00 148.00 L 0.00 74.00 ZM 55.98 126.51 C57.56,125.69 59.14,124.14 59.48,123.07 C60.81,118.86 75.38,118.08 87.43,121.57 C96.28,124.13 100.35,123.53 110.42,118.13 C135.23,104.83 150.09,91.16 146.30,85.10 C143.78,81.07 134.04,83.66 122.85,91.31 C120.84,92.68 118.82,93.42 118.35,92.96 C117.61,92.23 109.90,90.69 87.58,86.83 C79.71,85.47 72.21,86.53 65.39,89.97 C59.90,92.74 59.76,92.76 57.90,90.90 C56.61,89.61 54.59,89.00 51.58,89.00 C42.26,89.00 40.99,91.32 41.04,108.20 C41.07,121.38 41.87,124.25 46.11,126.60 C49.28,128.36 52.46,128.33 55.98,126.51 ZM 104.13 73.58 C109.07,71.50 115.75,65.39 118.27,60.64 C121.18,55.18 121.44,41.25 118.72,36.26 C111.33,22.66 96.47,17.31 83.23,23.48 C70.50,29.40 64.71,42.55 68.90,56.01 C71.17,63.28 76.46,69.42 83.50,72.93 C88.35,75.34 99.13,75.68 104.13,73.58 ZM 46.65 122.17 C45.30,120.67 45.00,118.06 45.00,107.73 C45.00,95.83 45.13,95.03 47.22,93.56 C50.36,91.36 53.62,91.62 55.44,94.22 C57.68,97.41 57.68,118.59 55.44,121.78 C53.52,124.52 48.97,124.73 46.65,122.17 ZM 87.50 117.85 C81.32,116.30 77.29,115.94 69.75,116.27 L 60.00 116.70 L 60.00 107.44 C60.00,98.34 60.05,98.13 63.05,95.61 C69.27,90.38 80.86,88.73 92.50,91.42 C95.80,92.18 100.97,93.11 104.00,93.48 C115.74,94.93 119.77,97.17 116.89,100.64 C116.00,101.71 112.51,102.00 101.62,101.92 C87.47,101.83 81.44,102.87 82.27,105.26 C82.51,105.96 83.74,106.31 85.10,106.07 C86.42,105.84 93.80,105.61 101.50,105.57 C109.20,105.53 116.51,105.13 117.75,104.68 C119.04,104.22 120.25,102.72 120.58,101.18 C120.90,99.71 121.33,97.97 121.52,97.33 C121.99,95.79 134.83,88.20 139.00,87.00 C140.81,86.48 142.68,86.30 143.16,86.60 C144.76,87.59 140.58,93.15 134.33,98.36 C124.86,106.26 100.96,120.10 97.10,119.93 C96.22,119.89 91.90,118.95 87.50,117.85 ZM 89.50 71.10 C82.00,69.18 76.43,64.40 73.08,57.00 C70.36,50.98 70.46,44.68 73.38,38.50 C77.66,29.46 84.58,25.00 94.35,25.00 C107.93,25.00 116.93,34.06 116.98,47.78 C117.00,54.84 115.60,58.97 111.53,63.79 C106.55,69.70 96.73,72.95 89.50,71.10 ZM 96.00 61.34 C96.00,60.50 97.35,58.54 99.00,57.00 C100.65,55.46 102.00,53.46 102.00,52.55 C102.00,50.54 98.54,47.13 93.94,44.63 C90.51,42.76 90.51,42.75 92.83,41.69 C94.53,40.91 95.68,40.94 97.07,41.81 C99.76,43.49 101.00,43.29 101.00,41.16 C101.00,40.15 99.88,38.81 98.50,38.18 C97.03,37.51 96.00,36.21 96.00,35.02 C96.00,33.89 95.34,33.00 94.50,33.00 C93.68,33.00 93.00,33.85 93.00,34.88 C93.00,35.92 91.88,37.51 90.50,38.41 C85.77,41.50 87.69,46.59 94.68,49.51 C97.11,50.52 98.05,51.50 97.80,52.73 C97.43,54.58 95.08,54.79 89.75,53.46 C85.92,52.50 86.09,55.03 90.00,57.34 C91.65,58.32 93.00,59.91 93.00,60.89 C93.00,61.87 93.29,62.95 93.64,63.31 C94.60,64.26 96.00,63.09 96.00,61.34 Z" fill="rgb(253,254,254)"/>
</g>
</svg>